<svg width="21" height="21" viewBox="0 0 21 21" fill="none" xmlns="http://www.w3.org/2000/svg">
<path d="M10.2687 15.6263V15.637M0.625 10.2687C0.625 11.5351 0.874441 12.7891 1.35908 13.9591C1.84372 15.1292 2.55407 16.1923 3.44957 17.0878C4.34506 17.9833 5.40817 18.6936 6.5782 19.1783C7.74822 19.6629 9.00224 19.9123 10.2687 19.9123C11.5351 19.9123 12.7891 19.6629 13.9591 19.1783C15.1292 18.6936 16.1923 17.9833 17.0878 17.0878C17.9833 16.1923 18.6936 15.1292 19.1783 13.9591C19.6629 12.7891 19.9123 11.5351 19.9123 10.2687C19.9123 9.00224 19.6629 7.74822 19.1783 6.5782C18.6936 5.40817 17.9833 4.34506 17.0878 3.44957C16.1923 2.55407 15.1292 1.84372 13.9591 1.35908C12.7891 0.874441 11.5351 0.625 10.2687 0.625C9.00224 0.625 7.74822 0.874441 6.5782 1.35908C5.40817 1.84372 4.34506 2.55407 3.44957 3.44957C2.55407 4.34506 1.84372 5.40817 1.35908 6.5782C0.874441 7.74822 0.625 9.00224 0.625 10.2687Z" stroke="#808284" stroke-width="1.25" stroke-linecap="round" stroke-linejoin="round"/>
<path d="M10.2687 11.8758C10.249 11.5279 10.3428 11.1831 10.5361 10.8932C10.7293 10.6033 11.0116 10.3841 11.3402 10.2685C11.743 10.1145 12.1045 9.86906 12.3963 9.55159C12.6881 9.23412 12.9022 8.85325 13.0218 8.43896C13.1414 8.02468 13.1632 7.58829 13.0854 7.16415C13.0077 6.74002 12.8326 6.33971 12.5739 5.99475C12.3152 5.64979 11.9799 5.36959 11.5945 5.17622C11.2091 4.98285 10.784 4.88158 10.3529 4.88038C9.92165 4.87919 9.49606 4.9781 9.10959 5.16933C8.72311 5.36056 8.3863 5.63889 8.12567 5.98241" stroke="#808284" stroke-width="1.25" stroke-linecap="round" stroke-linejoin="round"/>
</svg>
