<svg width="21" height="20" viewBox="0 0 21 20" fill="none" xmlns="http://www.w3.org/2000/svg">
<path d="M18.5074 9.625H7.88971M16.2721 13L19.625 9.625L16.2721 6.25M10.6838 4V2.875C10.6838 2.27826 10.4483 1.70597 10.0291 1.28401C9.60992 0.862053 9.04137 0.625 8.44853 0.625H2.86029C2.26746 0.625 1.6989 0.862053 1.2797 1.28401C0.860503 1.70597 0.625 2.27826 0.625 2.875V16.375C0.625 16.9717 0.860503 17.544 1.2797 17.966C1.6989 18.3879 2.26746 18.625 2.86029 18.625H8.44853C9.04137 18.625 9.60992 18.3879 10.0291 17.966C10.4483 17.544 10.6838 16.9717 10.6838 16.375V15.25" stroke="#808284" stroke-width="1.25" stroke-linecap="round" stroke-linejoin="round"/>
</svg>
