<svg width="19" height="18" viewBox="0 0 19 18" fill="none" xmlns="http://www.w3.org/2000/svg">
<path d="M5.51136 8.74387C5.60912 8.84179 5.68668 8.95808 5.73959 9.08608C5.7925 9.21408 5.81974 9.35128 5.81974 9.48985C5.81974 9.62841 5.7925 9.76561 5.73959 9.89361C5.68668 10.0216 5.60912 10.1379 5.51136 10.2358L3.5904 12.1632H13.7051C13.984 12.1632 14.2514 12.2743 14.4486 12.4721C14.6458 12.6698 14.7566 12.938 14.7566 13.2176C14.7566 13.4973 14.6458 13.7655 14.4486 13.9632C14.2514 14.1609 13.984 14.272 13.7051 14.272H3.5904L5.51242 16.1994C5.61011 16.2973 5.68761 16.4135 5.7405 16.5415C5.7934 16.6694 5.82065 16.8065 5.8207 16.945C5.82075 17.0835 5.79359 17.2207 5.74079 17.3486C5.68798 17.4766 5.61056 17.5929 5.51294 17.6909C5.41532 17.7888 5.29942 17.8665 5.17185 17.9196C5.04427 17.9726 4.90753 18 4.76943 18C4.63133 18 4.49456 17.9728 4.36695 17.9199C4.23934 17.8669 4.12338 17.7893 4.0257 17.6914L0.307844 13.9631C0.110732 13.7653 0 13.4972 0 13.2176C0 12.938 0.110732 12.6699 0.307844 12.4722L4.0257 8.74387C4.22287 8.5462 4.49026 8.43516 4.76906 8.43516C5.04786 8.43516 5.31524 8.5462 5.51242 8.74387H5.51136ZM13.4875 0.308788C13.6686 0.127248 13.9094 0.0181917 14.165 0.00207947C14.4205 -0.0140328 14.6731 0.0639063 14.8754 0.221275L14.9742 0.308788L18.6921 4.03709C18.8731 4.21865 18.9819 4.46021 18.9979 4.71645C19.014 4.9727 18.9363 5.22601 18.7793 5.42888L18.6921 5.52799L14.9742 9.25524C14.785 9.44435 14.5311 9.55413 14.2641 9.56231C13.9971 9.57049 13.737 9.47644 13.5366 9.29927C13.3363 9.12209 13.2107 8.87508 13.1853 8.60841C13.16 8.34173 13.2368 8.07538 13.4002 7.86346L13.4875 7.76434L15.4085 5.83693H5.29372C5.02573 5.83663 4.76797 5.73373 4.5731 5.54924C4.37824 5.36476 4.26097 5.11262 4.24526 4.84434C4.22956 4.57606 4.3166 4.31189 4.4886 4.10581C4.66061 3.89972 4.90459 3.76728 5.1707 3.73554L5.29372 3.72816H15.4095L13.4875 1.79863C13.2904 1.60091 13.1797 1.33277 13.1797 1.05318C13.1797 0.773599 13.2904 0.506515 13.4875 0.308788Z" fill="#F0F9FF"/>
</svg>
